<?xml version="1.0" encoding="UTF-8"?>
<svg width="518px" height="389px" viewBox="0 0 518 389" version="1.1" xmlns="http://www.w3.org/2000/svg" xmlns:xlink="http://www.w3.org/1999/xlink">
    <!-- Generator: Sketch 47.1 (45422) - http://www.bohemiancoding.com/sketch -->
    <title>Artboard</title>
    <desc>Created with Sketch.</desc>
    <defs></defs>
    <g id="Page-1" stroke="none" stroke-width="1" fill="none" fill-rule="evenodd">
        <g id="Artboard">
            <rect id="Rectangle" fill="#FFFFFF" x="3" y="14" width="507" height="352"></rect>
            <g id="outscope" transform="translate(56.000000, 128.000000)" fill-rule="nonzero">
                <path d="M257.211632,86.6976584 C257.058237,86.3030584 256.635362,86.0752482 256.220778,86.1688131 L256.092257,86.2054255 C254.865093,86.4657801 253.919843,86.3925553 253.25651,85.9532069 C252.315407,85.3307967 251.859365,83.9232546 251.859365,81.6532879 L251.859365,61.1381584 C251.859365,53.124118 246.99216,49.0601454 237.382127,49.0601454 C228.779529,49.0601454 222.038408,53.0549613 222.038408,58.1562846 C222.038408,60.7801708 223.66772,62.6758778 226.072302,62.9606406 C227.643571,63.1477705 229.144362,62.4480675 230.230569,61.3212202 C232.344943,59.1326143 232.075463,56.525 229.509195,53.7302561 C231.026568,52.1721965 233.713066,51.2528193 236.776835,51.2528193 C241.768414,51.2528193 243.899371,54.1574004 243.899371,60.9673007 L243.899371,66.1540525 C242.730248,66.5079721 241.635748,66.8415514 239.629166,67.3053081 C235.586981,68.2368894 230.03986,69.477642 225.856718,71.7435406 C222.403241,73.6026352 220.649556,76.5356926 220.649556,80.461352 C220.649556,84.7368628 223.510177,89.7283489 231.569673,89.7283489 C236.084481,89.7283489 240.126666,87.6292397 244.276642,83.1218506 C244.637328,87.8041655 246.444912,89.5615592 250.831199,89.5615592 C252.941427,89.5615592 254.62878,89.0774622 256.635362,88.1255407 C257.178465,87.8651861 257.435506,87.2468439 257.211632,86.6976584 L257.211632,86.6976584 Z M243.899371,80.4288077 C242.920955,81.7671931 239.720375,85.7498049 235.732086,85.7498049 C230.346652,85.7498049 229.214841,82.0397518 229.214841,78.9277007 C229.214841,73.8101053 233.211421,71.4425056 243.899371,68.8511637 L243.899371,80.4288077 Z M347.180294,89.9032747 C335.762677,89.9032747 327.151788,81.1244427 327.151788,69.48171 C327.151788,58.0830598 336.135803,48.8079269 347.180294,48.8079269 C358.3616,48.8079269 367.125883,57.7372762 367.125883,69.1440627 C367.125883,81.9665271 356.773745,89.9032747 347.180294,89.9032747 Z M346.749128,50.9965328 C341.815591,50.9965328 336.148239,53.0793696 336.148239,69.3108523 C336.148239,81.6939684 339.871196,87.7106005 347.528543,87.7106005 C354.854227,87.7106005 358.125287,82.0397518 358.125287,69.3108523 C358.125287,56.9887567 354.40233,50.9965328 346.749128,50.9965328 Z M170.66328,49.5401742 C170.66328,58.9861649 168.291865,64.1851209 156.161166,64.1851209 L149.730983,64.1851209 L149.730983,35.6518829 L156.422353,35.6518829 C168.971781,35.6518829 170.66328,42.6733213 170.66328,49.5401742 Z M149.730983,81.6532879 L149.730983,66.8090071 L155.555875,66.8090071 C164.245535,66.8090071 170.853988,65.0068651 175.202964,61.4473295 C179.75094,57.725072 180.704481,53.0102129 180.704481,49.7110319 C180.704481,36.1400478 167.359053,33.2924193 156.161166,33.2924193 L156.20677,33.2883513 L133.500058,33.2883513 C132.985975,33.2883513 132.567246,33.7032914 132.567246,34.2036604 L132.567246,34.264681 L132.567246,34.2484089 C132.567246,34.7121655 132.853308,35.1271057 133.301058,35.2857592 C135.324223,36.0180066 140.817448,34.9928603 140.817448,40.7735463 L140.817448,81.6451519 C140.817448,84.6188896 139.474199,86.7179986 133.334224,87.2875243 C132.845017,87.3322727 132.480184,87.7228046 132.480184,88.1946974 L132.480184,88.3370788 C132.480184,88.8415158 132.894766,89.2483199 133.40885,89.2483199 L157.670248,89.2483199 C158.184331,89.2483199 158.60306,88.8415158 158.60306,88.3370788 L158.60306,88.2109695 C158.60306,87.7390768 158.221644,87.3404088 157.732436,87.2997284 C151.061795,86.7749512 149.722691,84.7490669 149.722691,81.6451519 L149.722691,66.8374834 L149.730983,81.6532879 Z M199.066363,48.7875867 C188.506933,48.7875867 179.912627,58.1684887 179.912627,69.7013842 C179.912627,81.3766612 187.967976,89.8503901 199.066363,89.8503901 C208.390335,89.8503901 212.93002,84.3829432 215.529454,80.2742222 C215.786496,79.8674181 215.674559,79.3304367 215.27656,79.0497419 L215.152185,78.9643131 C214.750039,78.683618 214.190351,78.7649789 213.879415,79.1473749 C210.450813,83.3659331 207.449232,85.8067575 202.266944,85.8067575 C195.712386,85.8067575 188.710079,81.3766612 188.710079,68.9365926 L188.710079,68.8470957 C188.697642,68.29791 188.710079,67.5453225 188.730808,66.8415514 L215.550183,66.8415514 C215.624808,66.8415514 215.682851,66.7845988 215.686997,66.7113741 L215.70358,66.499836 C216.084995,61.402581 214.613226,56.817899 211.561894,53.6000788 C208.581044,50.4514153 204.261088,48.7875867 199.066363,48.7875867 Z M188.880058,64.2217332 C189.76312,55.7113919 193.146117,51.0453493 198.461072,51.0453493 C201.118549,51.0453493 203.091964,51.7694605 204.484963,53.2583634 C206.400337,55.2964518 207.21292,58.9861649 206.893691,64.2217332 L188.880058,64.2217332 Z M310.22851,64.6773538 L310.220217,64.6773538 C302.886243,62.6555376 300.029767,60.6133811 300.029767,57.3874247 C300.029767,53.7139839 303.002328,51.0453493 307.098407,51.0453493 C311.915861,51.0453493 313.980486,53.3071799 319.067419,61.6507315 L319.133753,61.7605686 C319.158627,61.8053171 319.204232,61.8297253 319.204232,61.8297253 L319.95048,61.8297253 C320.464563,61.8297253 320.883293,61.4188532 320.883293,60.9144161 L320.883293,48.921832 C320.883293,48.8486073 320.821106,48.7875867 320.821106,48.7875867 L319.82196,48.7875867 C319.544189,48.7875867 319.278857,48.9096279 319.104731,49.121166 L317.479566,51.0575534 C315.431527,49.9510463 312.094133,48.7875867 308.744302,48.7875867 C300.319976,48.7875867 294.437042,53.8929777 294.437042,61.2073151 C294.437042,68.0741677 299.076226,70.6451697 307.085971,72.7686869 C314.867693,74.8596598 317.628816,77.0360616 317.628816,81.0756262 C317.628816,85.5708111 313.192778,87.5885593 310.041948,87.5885593 C304.179744,87.5885593 301.704682,85.4528379 296.087083,75.5512267 L296.020749,75.4332535 C295.995875,75.3885051 295.95027,75.3600288 295.95027,75.3600288 L295.195729,75.3600288 C294.681646,75.3600288 294.262916,75.774969 294.262916,76.275338 L294.262916,89.7120767 C294.262916,89.7893695 294.325105,89.8503901 294.403875,89.8503901 L295.357417,89.8503901 C295.60202,89.8503901 295.842478,89.7527571 296.016604,89.5818994 L298.582872,87.063782 C301.5886,88.8944004 306.082679,89.8503901 309.001344,89.8503901 C313.383486,89.8503901 316.986212,88.4875963 319.419816,85.9125265 C321.592231,83.6140836 322.78623,80.359651 322.78623,76.7472307 C322.78623,70.4905841 319.382504,67.2198792 310.22851,64.6773538 Z M265.847397,84.4276917 C265.847397,86.4983244 265.312585,87.1776872 261.950316,87.3851573 C261.461107,87.4177016 261.079693,87.8163696 261.079693,88.2963984 C261.079693,88.8008354 261.49842,89.2076395 262.012503,89.2076395 L278.608262,89.2076395 C279.114052,89.2076395 279.524491,88.8049035 279.524491,88.3126705 C279.524491,87.8245057 279.138929,87.4217696 278.641429,87.4014294 C274.80239,87.2183676 273.807391,86.6081615 273.807391,84.4276917 L273.807391,60.5482925 C276.539492,56.0897197 278.50047,53.7546643 281.817134,53.0508933 C281.655448,53.616351 281.551801,54.2875777 281.551801,54.8367632 C281.551801,57.7372762 283.616424,59.7631606 286.572402,59.7631606 C289.474483,59.7631606 291.505939,57.7372762 291.505939,54.8367632 C291.505939,52.0949037 289.760544,48.8892877 284.8353,48.8892877 C280.801406,48.8892877 276.945785,51.1592544 273.633265,56.5900887 L273.633265,50.4473473 C273.633265,49.820869 273.106746,49.316432 272.468287,49.3327041 L262.012503,49.6093309 C261.502567,49.6256031 261.108712,50.024271 261.108712,50.520572 L261.108712,50.6507493 C261.108712,51.1023018 261.440379,51.4887657 261.883982,51.5497863 C265.370626,52.0338831 265.851542,53.6610994 265.847397,55.3493363 L265.847397,84.4276917 Z M380.632999,49.3082959 C380.873457,49.3082959 381.105622,49.4018608 381.275603,49.5686505 C381.462165,49.7395082 381.561664,49.9673185 381.565811,50.219537 L381.598976,57.0294371 C381.598976,57.0294371 385.00685,49.0398052 396.059633,49.0398052 L396.159132,49.0398052 C403.049503,49.0398052 407.000479,53.3519283 407.000479,60.8696677 L407.000479,84.3910793 C407.000479,86.461712 407.539437,87.1410748 410.89756,87.3485449 C411.386767,87.3770212 411.768183,87.7756892 411.768183,88.259786 C411.768183,88.760155 411.349454,89.1710271 410.839519,89.1710271 L395.926967,89.1710271 C395.412884,89.1710271 394.994155,88.760155 394.994155,88.255718 C394.994155,87.7675531 395.371424,87.3688851 395.84405,87.3282047 C398.555424,87.1003944 398.986589,86.4291677 398.986589,84.3910793 L398.986589,63.1640426 C398.986589,56.1507403 396.955131,53.4251531 391.743824,53.4251531 C388.219867,53.4251531 385.338517,56.4395712 383.539226,58.9698927 C383.539226,58.9698927 382.618852,60.100808 381.623853,62.2324613 L381.731645,84.3870113 C381.731645,86.4250997 382.154519,87.0963264 384.787121,87.3241367 C385.259744,87.3648171 385.63287,87.7675531 385.63287,88.2353778 C385.63287,88.760155 385.214141,89.1710271 384.704203,89.1710271 L369.882861,89.1710271 C369.372923,89.1710271 368.954196,88.760155 368.954196,88.255718 C368.954196,87.7756892 369.339758,87.3770212 369.824819,87.3444769 C373.182943,87.1370068 373.717754,86.461712 373.717754,84.3910793 L373.717754,55.3534043 C373.717754,53.6610994 373.236838,52.0257471 369.733611,51.5375822 C369.290007,51.4765616 368.954196,51.0860297 368.954196,50.6344771 L368.954196,50.5002318 C368.954196,49.9998628 369.352194,49.6011948 369.862132,49.5849227 L380.632999,49.3082959 Z" id="wordmark" fill="#3D3935"></path>
                <path d="M89.3220906,7.95666149 C115.602508,22.6504247 121.721754,55.5934187 103.434497,88.9269447 C87.3652588,118.224974 52.2749515,130.738268 26.1272002,115.82483 C-0.0246969705,100.903257 -5.12821401,59.2831318 6.11113179,35.3345757 C22.4291196,0.552827315 60.2846957,-8.28295721 89.3220906,7.95666149" id="thumbprint" fill="#007FA3"></path>
                <path d="M88.7126536,33.2313987 C93.8576289,38.6215528 95.4579193,46.7983146 94.5665658,53.5065139 C93.5425459,61.1544305 88.8162993,68.2328213 80.959951,72.9232724 C74.7287681,76.6495977 66.5407534,78.1303645 58.4854053,78.2035892 C58.419072,79.456546 58.1661763,83.7727371 58.0376555,84.456168 C57.8510932,85.460974 57.4904061,86.0060915 57.050948,86.5674811 C56.1844696,87.6780562 54.6836789,88.3899633 53.1911801,88.8089715 C52.0096184,89.1344148 50.8363485,89.2808642 50.0030367,89.2808642 C49.8662241,89.2808642 49.7294118,89.2686601 49.5925993,89.256456 C48.7178293,89.158823 47.7435592,88.7520189 47.1424138,88.0970644 C46.5412684,87.4339737 46.2013103,86.6040935 46.1225394,85.660308 L46.0562062,84.8060195 C45.8862272,84.0737721 44.9534153,46.9081517 45.131686,47.5712425 C45.2684985,43.1167378 52.5941805,42.34381 56.5700316,43.1289419 C60.5541745,43.9140737 59.5467378,48.6655455 59.4389463,54.5031838 C59.4389463,54.5031838 59.2482381,62.1795768 58.8792591,70.2912501 C63.9537554,70.1000522 67.9835024,68.680306 71.752062,66.8456195 C79.3679521,63.1355664 83.3976992,57.4525133 83.3976992,49.0845536 C83.3976992,40.7165938 75.0977471,31.3438278 59.7789042,31.3438278 C44.4600616,31.3438278 37.8847748,35.1352417 30.4678845,41.1559422 C28.7971148,42.5146677 27.5077617,43.8815294 26.2930333,44.7805664 C25.0741594,45.6796034 21.836266,45.8179168 20.9739332,43.7106717 C19.9250382,41.1722143 21.8777242,38.340858 23.0261193,36.9699283 C24.8295554,34.8179346 29.2697395,30.4854712 34.1949858,27.9673541 C39.8374609,25.079045 46.7361224,21.9669939 56.342011,21.7269795 C65.0316712,21.5154413 78.7543694,22.2029402 88.6380286,33.158174 M55.4879701,94.7645833 C54.6878249,94.1543772 53.7923255,93.735369 52.8843887,93.5604432 C52.5775972,93.4994226 52.2583682,93.4668783 51.9474309,93.4668783 C50.2393489,93.4668783 48.5602877,94.3903235 47.4657885,95.940247 C46.5537059,97.2257479 46.1764352,98.7675353 46.4168934,100.256438 C46.574435,101.212428 46.9351222,102.03824 47.4740801,102.652514 C48.0752255,103.344081 48.9955999,103.876995 50.139849,104.19837 C50.7990361,104.377364 51.4748063,104.474997 52.1505767,104.474997 L52.1547225,104.474997 C53.6306381,104.474997 54.9573037,104.035648 55.9896156,103.22204 C57.1877604,102.257914 57.8386557,100.895121 57.8262182,99.3696053 C57.8096348,97.6000076 56.9390106,95.8710903 55.4879701,94.7645833" id="interrobang" fill="#FFFFFF"></path>
            </g>
        </g>
    </g>
</svg>